<svg xmlns="http://www.w3.org/2000/svg" version="1.1" xmlns:xlink="http://www.w3.org/1999/xlink" xmlns:svgjs="http://svgjs.dev/svgjs" width="100%" height="100%" viewBox="0 0 1000 600"><rect width="1000" height="600" x="0" y="0" fill="#d2302c"/><g><rect width="333.3333333333333" height="333.3333333333333" y="130.12298972358957" fill="#d2302c" transform="matrix(1.1584718391315534,0,0,1.1584718391315536,0,-43.822460282686166)" x="107.90076446533203"/><path d="M224.24786003762534 221.7896610789955L224.24786003762534 221.7896610789955Q231.16244392756113 221.7896610789955 238.16418643795825 222.9517760184805Q245.16592894835537 224.1138909579655 250.83123927834475 226.49622658390976Q256.46749673484703 228.9076150833411 260.12815879422476 232.364907028309Q263.78882085360254 235.8221989732769 263.78882085360254 240.41255298424267L263.78882085360254 240.41255298424267Q263.78882085360254 245.2353299831054 261.2902737337098 247.73387710299818Q258.7626737403299 250.26147709637803 255.0148530604908 250.26147709637803L255.0148530604908 250.26147709637803Q251.4413496215744 250.26147709637803 248.7394323872718 249.09936215689305Q246.00846227948202 247.93724721740804 242.55117033451413 246.48460354305178Q239.09387838954626 245.03195986869554 234.3001542641706 243.86984492921053Q229.47737726530787 242.70772998972552 221.54594280332273 242.70772998972552L221.54594280332273 242.70772998972552Q213.58545546785047 242.70772998972552 206.38034284304345 246.80418515141017Q199.1461773447493 250.87158743960768 193.82950149660542 258.1057529379018Q188.48377277497443 265.3108655627088 185.34606243836492 275.1307368013571Q182.2083521017554 284.97966091349247 182.2083521017554 296.484598814394L182.2083521017554 296.484598814394Q182.2083521017554 310.69145394959816 185.86901416113318 320.94711829055325Q189.5296762205109 331.2027826315084 195.39835666491018 337.7977849130858Q201.23798423582232 344.39278719466313 208.67551984852633 347.6176561517341Q216.0840025877432 350.871577982292 223.63774969439572 350.871577982292L223.63774969439572 350.871577982292Q232.61508760191737 350.871577982292 238.6871381607265 348.98314120562895Q244.75918871953564 347.09470442896577 249.029961122143 344.7995274234829Q253.32978639823753 342.50435041800006 256.46749673484703 340.6159136413369Q259.60520707145656 338.7274768646738 262.53954729365614 338.7274768646738L262.53954729365614 338.7274768646738Q266.08399785908546 338.7274768646738 268.1758047501584 340.7321251352854Q270.26761164123144 342.7077205324099 270.26761164123144 347.7338676456825L270.26761164123144 347.7338676456825Q270.26761164123144 351.91748142782853 267.04274268416054 356.1882538304359Q263.78882085360254 360.48807910653045 257.629611674332 363.94537105149834Q251.4413496215744 367.40266299646623 242.87075194287252 369.58162850800056Q234.3001542641706 371.7896468930221 223.63774969439572 371.7896468930221L223.63774969439572 371.7896468930221Q211.9003888055972 371.7896468930221 200.3082922842343 367.1702400085692Q188.6871428893843 362.57988599760336 179.59359348791418 353.48633659613324Q170.500044086444 344.39278719466313 164.83473375645463 330.6798309087401Q159.19847629995238 316.96687462281716 159.19847629995238 298.7797758198769L159.19847629995238 298.7797758198769Q159.19847629995238 280.5926770169366 164.31178203368637 266.3567690082453Q169.45414064090753 252.12086099955405 178.34431992796777 242.18477826695727Q187.23449921502805 232.2486955343605 199.05901872428794 227.019178306678Q210.85448536006072 221.7896610789955 224.24786003762534 221.7896610789955ZM345.77602983426937 361.53398255206696L345.77602983426937 361.53398255206696Q343.0741125999668 366.56012966533956 340.8660942149453 368.8553066708224Q338.6871287034109 371.15048367630527 335.3169953789044 371.15048367630527L335.3169953789044 371.15048367630527Q331.975914927885 371.15048367630527 329.47736780799227 368.8553066708224Q326.9497678146124 366.56012966533956 324.0444804658999 361.7373526664768L324.0444804658999 361.7373526664768Q320.2676069125736 355.46193199325774 315.5610414076594 344.39278719466313Q310.8544759027451 333.2945895225814 306.03169890388233 320.2207964533751Q301.2379747785067 307.1470033841689 296.61856789405385 293.1435183633746Q292.0282138830881 279.1109804690932 288.36755182371036 266.7635092370651Q284.7068897643326 254.445090878524 282.498871379311 245.1191184891569Q280.3199058677767 235.8221989732769 280.3199058677767 231.84195530554075L280.3199058677767 231.84195530554075Q280.3199058677767 227.65834152339474 281.9759196565428 225.56653463232175Q283.66098631879606 223.47472774124876 288.4837633176588 223.47472774124876L288.4837633176588 223.47472774124876Q291.18568055196147 223.47472774124876 293.19032882257306 224.84021279514363Q295.16592421969756 226.2056978490385 298.3036345563071 232.48111852225753L298.3036345563071 232.48111852225753Q300.80218167619984 237.27484264763314 303.7365218983995 245.03195986869554Q306.6708621205991 252.76002421627078 309.9247839511571 262.1731552260993Q313.149652908228 271.58628623592784 316.4907333592474 281.92910919734436Q319.8608666837539 292.300985032248 323.20194713477326 302.55664937320313Q326.54302758579263 312.7832608406711 329.47736780799227 322.1963918504996Q332.4117080301919 331.6095228603282 334.91025515008465 339.1632699669807L334.91025515008465 339.1632699669807Q337.4088022699774 331.40615274591823 340.54651260658693 321.90586311562834Q343.6842229431964 312.37652061185133 347.05435626770293 302.23706776484477Q350.3954367187223 292.0976149178381 353.73651716974166 281.72573908293447Q357.077597620761 271.38291612151795 360.41867807178045 262.1731552260993Q363.788811396287 252.96339433068067 366.6940987449994 245.2353299831054Q369.6284389671991 237.47821276204303 371.92361597268194 232.48111852225753L371.92361597268194 232.48111852225753Q374.85795619488164 226.40906796344836 377.06597457990307 224.927371415605Q379.2449400914375 223.47472774124876 381.5691699704075 223.47472774124876L381.5691699704075 223.47472774124876Q386.36289409578313 223.47472774124876 388.13511937849773 225.8861162406801Q389.93639753469944 228.2975047401115 389.93639753469944 232.88785875107726L389.93639753469944 232.88785875107726Q389.93639753469944 237.07147253322327 388.658071101266 242.94015297762252Q387.40879754131964 248.77978054853466 384.38729869865864 258.5124931667215Q381.33674698251053 268.2452057849084 376.339652742725 282.6844839080096Q371.3135056294523 297.09470915762364 363.99218151069687 318.01277806835367L363.99218151069687 318.01277806835367Q362.1037447340337 323.678088398343 359.6923562346023 329.7501389571521Q357.280967735171 335.7931366424741 354.8986321092267 341.54560559292486Q352.4872436097953 347.2980745433756 350.19206660431246 352.52759177105816Q347.8678367253424 357.7571089987407 345.77602983426937 361.53398255206696Z " fill="#d2302c" transform="matrix(1.1584718391315534,0,0,1.1584718391315536,0,-43.822460282686166)"/><path d="M589.6168175571565 221.7896610789955L589.6168175571565 221.7896610789955Q596.5314014470923 221.7896610789955 603.5331439574894 222.9517760184805Q610.5348864678865 224.1138909579655 616.200196797876 226.49622658390976Q621.8364542543782 228.9076150833411 625.4971163137559 232.364907028309Q629.1577783731337 235.8221989732769 629.1577783731337 240.41255298424267L629.1577783731337 240.41255298424267Q629.1577783731337 245.2353299831054 626.6592312532409 247.73387710299818Q624.131631259861 250.26147709637803 620.383810580022 250.26147709637803L620.383810580022 250.26147709637803Q616.8103071411056 250.26147709637803 614.1083899068029 249.09936215689305Q611.3774197990132 247.93724721740804 607.9201278540453 246.48460354305178Q604.4628359090774 245.03195986869554 599.6691117837017 243.86984492921053Q594.846334784839 242.70772998972552 586.9149003228539 242.70772998972552L586.9149003228539 242.70772998972552Q578.9544129873816 242.70772998972552 571.7493003625746 246.80418515141017Q564.5151348642805 250.87158743960768 559.1984590161367 258.1057529379018Q553.8527302945056 265.3108655627088 550.7150199578961 275.1307368013571Q547.5773096212865 284.97966091349247 547.5773096212865 296.484598814394L547.5773096212865 296.484598814394Q547.5773096212865 310.69145394959816 551.2379716806643 320.94711829055325Q554.8986337400421 331.2027826315084 560.7673141844414 337.7977849130858Q566.6069417553535 344.39278719466313 574.0444773680574 347.6176561517341Q581.4529601072744 350.871577982292 589.0067072139269 350.871577982292L589.0067072139269 350.871577982292Q597.9840451214485 350.871577982292 604.0560956802576 348.98314120562895Q610.1281462390668 347.09470442896577 614.3989186416742 344.7995274234829Q618.6987439177688 342.50435041800006 621.8364542543782 340.6159136413369Q624.9741645909877 338.7274768646738 627.9085048131873 338.7274768646738L627.9085048131873 338.7274768646738Q631.4529553786166 338.7274768646738 633.5447622696896 340.7321251352854Q635.6365691607626 342.7077205324099 635.6365691607626 347.7338676456825L635.6365691607626 347.7338676456825Q635.6365691607626 351.91748142782853 632.4117002036917 356.1882538304359Q629.1577783731337 360.48807910653045 622.9985691938632 363.94537105149834Q616.8103071411056 367.40266299646623 608.2397094624037 369.58162850800056Q599.6691117837017 371.7896468930221 589.0067072139269 371.7896468930221L589.0067072139269 371.7896468930221Q577.2693463251284 371.7896468930221 565.6772498037656 367.1702400085692Q554.0561004089154 362.57988599760336 544.9625510074453 353.48633659613324Q535.8690016059752 344.39278719466313 530.2036912759859 330.6798309087401Q524.5674338194835 316.96687462281716 524.5674338194835 298.7797758198769L524.5674338194835 298.7797758198769Q524.5674338194835 280.5926770169366 529.6807395532176 266.3567690082453Q534.8230981604387 252.12086099955405 543.713277447499 242.18477826695727Q552.6034567345591 232.2486955343605 564.4279762438191 227.019178306678Q576.2234428795919 221.7896610789955 589.6168175571565 221.7896610789955ZM711.1449873538005 361.53398255206696L711.1449873538005 361.53398255206696Q708.443070119498 366.56012966533956 706.2350517344764 368.8553066708224Q704.0560862229421 371.15048367630527 700.6859528984356 371.15048367630527L700.6859528984356 371.15048367630527Q697.3448724474162 371.15048367630527 694.8463253275235 368.8553066708224Q692.3187253341436 366.56012966533956 689.4134379854311 361.7373526664768L689.4134379854311 361.7373526664768Q685.6365644321048 355.46193199325774 680.9299989271906 344.39278719466313Q676.2234334222763 333.2945895225814 671.4006564234136 320.2207964533751Q666.6069322980379 307.1470033841689 661.987525413585 293.1435183633746Q657.3971714026193 279.1109804690932 653.7365093432416 266.7635092370651Q650.0758472838637 254.445090878524 647.8678288988423 245.1191184891569Q645.6888633873078 235.8221989732769 645.6888633873078 231.84195530554075L645.6888633873078 231.84195530554075Q645.6888633873078 227.65834152339474 647.344877176074 225.56653463232175Q649.0299438383272 223.47472774124876 653.8527208371901 223.47472774124876L653.8527208371901 223.47472774124876Q656.5546380714926 223.47472774124876 658.5592863421042 224.84021279514363Q660.5348817392288 226.2056978490385 663.6725920758382 232.48111852225753L663.6725920758382 232.48111852225753Q666.171139195731 237.27484264763314 669.1054794179306 245.03195986869554Q672.0398196401303 252.76002421627078 675.2937414706882 262.1731552260993Q678.5186104277592 271.58628623592784 681.8596908787786 281.92910919734436Q685.229824203285 292.300985032248 688.5709046543044 302.55664937320313Q691.9119851053238 312.7832608406711 694.8463253275235 322.1963918504996Q697.780665549723 331.6095228603282 700.2792126696158 339.1632699669807L700.2792126696158 339.1632699669807Q702.7777597895087 331.40615274591823 705.9154701261181 321.90586311562834Q709.0531804627276 312.37652061185133 712.4233137872341 302.23706776484477Q715.7643942382534 292.0976149178381 719.1054746892729 281.72573908293447Q722.4465551402922 271.38291612151795 725.7876355913116 262.1731552260993Q729.1577689158181 252.96339433068067 732.0630562645306 245.2353299831054Q734.9973964867303 237.47821276204303 737.2925734922131 232.48111852225753L737.2925734922131 232.48111852225753Q740.2269137144127 226.40906796344836 742.4349320994343 224.927371415605Q744.6138976109686 223.47472774124876 746.9381274899387 223.47472774124876L746.9381274899387 223.47472774124876Q751.7318516153142 223.47472774124876 753.5040768980289 225.8861162406801Q755.3053550542306 228.2975047401115 755.3053550542306 232.88785875107726L755.3053550542306 232.88785875107726Q755.3053550542306 237.07147253322327 754.0270286207972 242.94015297762252Q752.7777550608508 248.77978054853466 749.7562562181898 258.5124931667215Q746.7057045020416 268.2452057849084 741.7086102622561 282.6844839080096Q736.6824631489835 297.09470915762364 729.361139030228 318.01277806835367L729.361139030228 318.01277806835367Q727.4727022535649 323.678088398343 725.0613137541335 329.7501389571521Q722.6499252547021 335.7931366424741 720.2675896287578 341.54560559292486Q717.8562011293265 347.2980745433756 715.5610241238436 352.52759177105816Q713.2367942448735 357.7571089987407 711.1449873538005 361.53398255206696Z " fill="#f7f7f9" transform="matrix(1.1584718391315534,0,0,1.1584718391315536,0,-43.822460282686166)"/></g></svg>